<?xml version="1.0" standalone="no"?><!DOCTYPE svg PUBLIC "-//W3C//DTD SVG 1.1//EN" "http://www.w3.org/Graphics/SVG/1.1/DTD/svg11.dtd"><svg class="icon" width="200px" height="200.00px" viewBox="0 0 1024 1024" version="1.1" xmlns="http://www.w3.org/2000/svg"><path fill="#000000" d="M725.333333 512l-213.333333 0 0 213.333333 213.333333 0 0-213.333333zM682.666667 42.666667l0 85.333333-341.333333 0 0-85.333333-85.333333 0 0 85.333333-42.666667 0c-47.146667 0-84.906667 38.186667-84.906667 85.333333l-0.426667 597.333333c0 47.146667 38.186667 85.333333 85.333333 85.333333l597.333333 0c47.146667 0 85.333333-38.186667 85.333333-85.333333l0-597.333333c0-47.146667-38.186667-85.333333-85.333333-85.333333l-42.666667 0 0-85.333333-85.333333 0zM810.666667 810.666667l-597.333333 0 0-469.333333 597.333333 0 0 469.333333z"  /></svg>