<?xml version="1.0" standalone="no"?><!DOCTYPE svg PUBLIC "-//W3C//DTD SVG 1.1//EN" "http://www.w3.org/Graphics/SVG/1.1/DTD/svg11.dtd"><svg class="icon" width="200px" height="200.00px" viewBox="0 0 1024 1024" version="1.1" xmlns="http://www.w3.org/2000/svg"><path fill="#000000" d="M512 135.111111c228.977778 0 388.081778 119.836444 477.297778 359.509333l2.673778 7.310223a29.297778 29.297778 0 0 1-0.056889 20.124444C901.76 766.606222 741.788444 888.888889 512 888.888889c-227.470222 0-386.531556-119.822222-477.155556-359.452445l-2.759111-7.367111a29.297778 29.297778 0 0 1-0.056889-20.124444C120.718222 257.393778 280.704 135.111111 512 135.111111zM512 284.444444c-117.816889 0-213.333333 95.516444-213.333333 213.333334 0 117.816889 95.516444 213.333333 213.333333 213.333333 117.816889 0 213.333333-95.516444 213.333333-213.333333 0-117.816889-95.516444-213.333333-213.333333-213.333334z m0 71.111112c78.549333 0 142.222222 63.672889 142.222222 142.222222s-63.672889 142.222222-142.222222 142.222222-142.222222-63.672889-142.222222-142.222222 63.672889-142.222222 142.222222-142.222222z"  /></svg>