<?xml version="1.0" standalone="no"?><!DOCTYPE svg PUBLIC "-//W3C//DTD SVG 1.1//EN" "http://www.w3.org/Graphics/SVG/1.1/DTD/svg11.dtd"><svg class="icon" width="200px" height="200.00px" viewBox="0 0 1024 1024" version="1.1" xmlns="http://www.w3.org/2000/svg"><path fill="#000000" d="M819.2 102.4H368.64c-56.32 0-102.4 46.08-102.4 102.4v61.44H204.8c-56.32 0-102.4 46.08-102.4 102.4V819.2c0 56.32 46.08 102.4 102.4 102.4h450.56c56.32 0 102.4-46.08 102.4-102.4v-61.44h61.44c56.32 0 102.4-46.08 102.4-102.4V204.8c0-56.32-46.08-102.4-102.4-102.4zM696.32 819.2c0 20.48-20.48 40.96-40.96 40.96H204.8c-20.48 0-40.96-20.48-40.96-40.96V368.64c0-20.48 20.48-40.96 40.96-40.96h450.56c20.48 0 40.96 20.48 40.96 40.96V819.2z m163.84-163.84c0 20.48-20.48 40.96-40.96 40.96h-61.44V368.64c0-56.32-46.08-102.4-102.4-102.4H327.68V204.8c0-20.48 20.48-40.96 40.96-40.96H819.2c20.48 0 40.96 20.48 40.96 40.96v450.56zM593.92 481.28H266.24c-15.36 0-30.72 15.36-30.72 30.72s15.36 30.72 30.72 30.72h327.68c15.36 0 30.72-15.36 30.72-30.72s-15.36-30.72-30.72-30.72zM430.08 645.12H266.24c-15.36 0-30.72 15.36-30.72 30.72s15.36 30.72 30.72 30.72h163.84c15.36 0 30.72-15.36 30.72-30.72s-15.36-30.72-30.72-30.72z"  /></svg>